<mxfile host="app.diagrams.net" modified="2023-08-18T01:30:23.971Z" agent="Mozilla/5.0 (Macintosh; Intel Mac OS X 10_15_7) AppleWebKit/537.36 (KHTML, like Gecko) Chrome/115.0.0.0 Safari/537.36" version="21.6.8" etag="teFqNH8QvXNtX0MIAIf4" type="github">
  <diagram name="Page-1" id="wTFja_zdezl0JjM4TNHG">
    <mxGraphModel>
      <root>
        <mxCell id="0" />
        <mxCell id="1" parent="0" />
      </root>
    </mxGraphModel>
  </diagram>
</mxfile>
